<?xml version="1.0" encoding="iso-8859-1"?>
<!-- Generator: Adobe Illustrator 16.0.0, SVG Export Plug-In . SVG Version: 6.00 Build 0)  -->
<!DOCTYPE svg PUBLIC "-//W3C//DTD SVG 1.1//EN" "http://www.w3.org/Graphics/SVG/1.1/DTD/svg11.dtd">
<svg version="1.1" id="Capa_1" xmlns="http://www.w3.org/2000/svg" xmlns:xlink="http://www.w3.org/1999/xlink" x="0px" y="0px"
	 width="400px" height="400px" viewBox="0 0 400 400" style="enable-background:new 0 0 400 400;" xml:space="preserve">
<g>
	<g>
		<path d="M362.631,114.816c-26.265-29.393-56.064-44.297-88.579-44.297c-20.442,0-38.51,6.002-52.653,11.938
			c5.162-20.776,13.275-39.304,25.261-44.598c7.009-3.097,10.181-11.291,7.083-18.301c-3.097-7.01-11.291-10.181-18.3-7.084
			c-11.252,4.971-20.685,14.5-28.234,28.461c-3.869-11.79-11.019-21.591-20.894-28.231c-11.771-7.919-26.679-10.631-41.975-7.639
			c-4.891,0.957-9.808,2.485-14.611,4.542c-2.242,0.959-3.708,3.143-3.754,5.577c-0.393,21.959,8.429,40.639,24.202,51.247
			c11.772,7.919,26.681,10.632,41.978,7.638c0.935-0.184,1.873-0.394,2.81-0.618c-1.074,4.127-2.063,8.438-2.964,12.949
			c-0.125,0.622-0.244,1.24-0.363,1.859c-0.201-0.092-0.408-0.188-0.597-0.273c-15.146-6.955-38.037-17.469-65.093-17.469
			c-32.513,0-62.314,14.904-88.579,44.298C11.141,144.169-2.039,184.143,0.256,227.374c2.238,42.144,18.999,82.729,47.193,114.287
			c30.925,34.609,72.749,54.46,114.749,54.46c4.265,0,8.562-0.207,12.782-0.615c7.797-0.755,13.889-3.055,18.338-4.732
			c3.909-1.477,5.075-1.851,6.682-1.851c1.53,0,2.342,0.271,5.828,1.654c4.146,1.646,9.822,3.898,17.335,4.734
			c4.82,0.536,9.745,0.81,14.637,0.81h0.003c42,0,83.823-19.85,114.748-54.46c28.194-31.559,44.955-72.146,47.193-114.287
			C402.038,184.144,388.858,144.17,362.631,114.816z M362.79,225.412c-1.794,33.764-15.23,66.293-37.837,91.594
			c-23.911,26.763-55.677,42.111-87.151,42.111h-0.003c-3.53,0-7.079-0.195-10.548-0.581c-2.566-0.286-4.862-1.197-7.771-2.354
			c-4.781-1.898-10.735-4.265-19.479-4.265c-8.532,0-14.748,2.347-19.748,4.234c-3.188,1.2-5.938,2.239-8.836,2.521
			c-3.037,0.293-6.139,0.442-9.218,0.442c-31.476,0-63.241-15.351-87.153-42.111c-22.605-25.299-36.042-57.829-37.836-91.594
			c-1.773-33.404,8.083-63.925,27.753-85.938c18.942-21.2,39.461-31.949,60.984-31.949c18.965,0,35.98,7.814,49.667,14.101
			c4.298,1.973,7.922,3.611,11.132,4.887c-0.539,7.753-0.602,13.797-0.589,14.097c-2.119-0.344-6.598-0.842-18.926-6.137
			l-0.854-0.408c-0.669-0.317-1.466-0.208-2.021,0.283c-0.556,0.49-0.766,1.266-0.532,1.969c1.978,5.963,6.662,11.351,13.189,15.165
			c6.75,3.944,14.674,6.029,22.918,6.029c3.979,0,7.954-0.487,11.813-1.449c11.872-2.958,20.999-10.32,24.409-19.693
			c0.26-0.707,0.062-1.498-0.494-2.004c-0.559-0.506-1.365-0.623-2.041-0.299c-0.484,0.231-14.292,6.457-19.773,6.49
			c0.006-0.16,0.312-9.353,0.715-14.573c2.89-1.19,6.106-2.649,9.839-4.364c13.671-6.278,30.688-14.093,49.651-14.093
			c21.523,0,42.042,10.75,60.984,31.948C354.706,161.486,364.563,192.008,362.79,225.412z"/>
	</g>
</g>
<g>
</g>
<g>
</g>
<g>
</g>
<g>
</g>
<g>
</g>
<g>
</g>
<g>
</g>
<g>
</g>
<g>
</g>
<g>
</g>
<g>
</g>
<g>
</g>
<g>
</g>
<g>
</g>
<g>
</g>
</svg>
